<?xml version="1.0" encoding="UTF-8" standalone="no"?>
<!DOCTYPE svg PUBLIC "-//W3C//DTD SVG 20010904//EN"
              "http://www.w3.org/TR/2001/REC-SVG-20010904/DTD/svg10.dtd">

<svg xmlns="http://www.w3.org/2000/svg"
     width="1.66667in" height="1.66667in"
     viewBox="0 0 500 500">
  <path id="Selection"
        fill="#000" stroke="black" stroke-width="1"
        d="M 0.00,0.00
           C 0.00,0.00 0.00,500.00 0.00,500.00
             0.00,500.00 41.00,500.00 41.00,500.00
             41.00,479.52 42.12,463.08 46.88,443.00
             58.78,392.87 89.20,349.30 131.00,319.43
             148.88,306.65 163.88,300.00 184.00,292.00
             178.73,287.81 165.15,282.36 149.00,267.83
             119.99,241.72 100.30,202.57 101.96,163.00
             101.96,163.00 101.96,151.00 101.96,151.00
             104.37,127.98 114.55,102.45 128.37,84.00
             144.68,62.25 162.66,48.04 187.00,36.26
             206.02,27.05 227.04,22.78 248.00,21.96
             301.78,19.87 352.73,44.05 383.25,89.00
             424.16,149.23 408.77,229.32 352.00,273.58
             343.05,280.55 334.46,286.49 324.00,291.00
             324.00,291.00 345.00,300.26 345.00,300.26
             360.22,307.62 372.62,315.00 386.00,325.42
             432.34,361.55 462.79,416.22 467.09,475.00
             467.09,475.00 468.00,487.00 468.00,487.00
             468.00,487.00 468.00,500.00 468.00,500.00
             468.00,500.00 500.00,500.00 500.00,500.00
             500.00,500.00 500.00,0.00 500.00,0.00
             500.00,0.00 0.00,0.00 0.00,0.00 Z" />
</svg>
